<svg data-name="Layer 2" xmlns="http://www.w3.org/2000/svg" width="16" height="16" fill="currentColor" viewBox="0.25 0.253 2155.841 2780.375"><g data-name="Layer 1"><path d="m1757.79 548.49 1.41 2.01c-4.02 2.75 -8.03 5.51 -12.05 8.26 -0.51 -0.55 -1.02 -1.09 -1.52 -1.64 4.05 -2.88 8.1 -5.75 12.16 -8.63Zm67.4 -42.04c0.43 0.72 0.86 1.44 1.3 2.15 -19.91 12.27 -39.82 24.53 -59.73 36.79 -0.52 -0.95 -1.03 -1.9 -1.55 -2.84 19.99 -12.04 39.98 -24.07 59.98 -36.1Zm13.13 89.45c-3.03 2.13 -6.07 4.27 -9.09 6.41 2.25 -3.38 3.85 -7.94 9.09 -6.41Zm71.19 -48.97c0.44 0.59 0.88 1.19 1.32 1.79 -2.25 1.2 -4.49 2.4 -6.74 3.59 1.81 -1.79 3.62 -3.59 5.42 -5.38Zm-54.12 34.32c-6.48 3.75 -13.21 7.49 -16.97 14.55 -1.85 -4.71 1.77 -7.32 4.59 -9.72 4 -3.4 8.34 -6.57 12.93 -9.1 14.74 -8.1 29.66 -15.88 44.54 -23.72 0.65 -0.34 1.55 -0.23 2.39 -0.23 -3.78 2.79 -7.36 5.92 -11.42 8.24 -11.93 6.82 -24.18 13.08 -36.06 19.98Zm-10.91 16.27q2.8 -6.53 10.6 -9.15c-3.28 2.83 -6.56 5.66 -10.6 9.15Zm-15.34 11.49c-3.25 3.36 -6.49 6.72 -9.74 10.08l-1.59 -1.8c3.52 -3.06 6.01 -7.31 11.33 -8.28Zm7.61 -8.19 1.57 1.66c-2.62 2.44 -4.6 5.61 -8.77 6.31 2.41 -2.66 4.81 -5.31 7.2 -7.97Zm-83.08 -7.89c0.38 0.52 0.77 1.04 1.16 1.57l-13.63 10.78c-0.59 -0.61 -1.18 -1.21 -1.77 -1.82 4.75 -3.51 9.49 -7.02 14.24 -10.53Z"/><path d="M2154.48 730.81c1.94 21.19 1.66 42.62 1.49 63.94 -0.44 56.48 -6.2 112.53 -18.87 167.51 -15.34 66.63 -40.08 129.79 -77.75 187.24 -14.04 21.41 -29.1 42.23 -44.9 62.37 -18.12 23.11 -18.64 22.66 -18.73 52.16 -0.09 26.33 0.42 52.69 -0.64 78.98 -1.87 46.68 -11.48 91.78 -31.15 134.37 -4.03 8.73 -9.04 17.13 -14.56 25.01 -6.63 9.46 -9.02 19.54 -8.98 30.95 0.17 47.66 -0.29 95.33 -0.18 142.99 0.17 73.33 0.61 146.66 0.97 219.99 0.14 29.04 -0.9 58.03 -5.92 86.66 -12.25 70.02 -44.48 129.18 -97.52 176.72 -12.4 11.12 -25.25 21.74 -37.93 32.55 -1.45 1.24 -3.11 2.24 -5.55 3.98 0.44 -9.22 1.1 -17.32 1.16 -25.42 0.16 -23.66 0.34 -47.34 -0.03 -70.99 -0.15 -9.53 2.64 -17.33 8.47 -24.82 10.44 -13.39 20.83 -26.89 30.07 -41.11 12.97 -19.98 22.23 -41.77 26.11 -65.42 1.5 -9.15 1.87 -18.56 1.88 -27.85 0.04 -125.67 -0.08 -251.33 -0.15 -376.99 -0.01 -26.33 0.19 -52.67 -0.15 -79 -0.1 -7.25 1.76 -12.3 7.77 -16.96 12.95 -10.03 24.04 -21.9 33 -35.86 10.03 -15.65 15.09 -32.42 15.07 -50.95 -0.05 -43.99 0.07 -87.99 0.11 -131.99 0.02 -16.33 0.11 -32.67 -0.06 -49 -0.06 -5.75 1.85 -9.54 6.5 -13.5 8.03 -6.87 15.17 -14.91 22 -23.04 39.16 -46.6 69.34 -98.38 90.12 -155.7 21.72 -59.93 34.23 -121.72 38.74 -185.18 2.78 -38.99 1.37 -77.89 -2.88 -116.77 -5.12 -46.87 -15.35 -92.62 -29.84 -137.36 -22.47 -69.42 -57.4 -132.26 -100.71 -190.88 -38.62 -52.26 -84.81 -96.47 -136.45 -135.41 -47.56 -35.86 -98.41 -66.01 -153.28 -89.27 -59.39 -25.18 -120.57 -44.11 -184.47 -54.06 -57.08 -8.88 -114.49 -13.37 -172.2 -14.02 -44.99 -0.51 -89.99 -0.55 -134.99 -0.55 -47.7 0 -95.29 3 -142.54 9.31 -39.57 5.28 -79.24 11.01 -118.21 19.53 -92.07 20.15 -178.91 53.97 -259.36 103.71 -74.04 45.77 -139.15 101.81 -196.11 167.51 -24.3 28.04 -45.33 58.36 -64.42 90.09 -5.66 9.41 -11.27 18.84 -16.83 28.14h-244.5c3.6 -4.05 5.96 -7.07 8.68 -9.74 20.91 -20.55 41.89 -41.04 62.85 -61.55 1.42 -1.4 3.2 -2.63 4.13 -4.32 4.9 -8.89 12.7 -10.05 21.99 -9.91 25.66 0.37 51.33 0 77 -0.16 6.32 -0.04 12.65 -0.7 18.98 -0.67 4.87 0.02 7.58 -2.22 10.35 -6.15 32.51 -46.07 67.28 -90.31 106.61 -130.83 37.22 -38.37 77.6 -72.99 121.29 -103.86 62.67 -44.28 130.02 -79.71 201.6 -106.94 52.67 -20.04 107.13 -34.25 162.4 -45.28 61.93 -12.37 124.69 -16.9 187.62 -20.16 64.63 -3.35 129.28 -2.91 193.93 -1.72 86.13 1.59 171.65 9.59 255.61 29.72 69.96 16.77 136.41 42.94 199.99 76.65 75.53 40.03 141.93 91.71 200.33 154.01 53.32 56.88 96.24 121 130.61 190.62 29.91 60.59 50.37 124.66 61.07 191.53 4.63 28.92 8.7 57.99 11.36 87.15Z"/><path d="M1965.6 764.71c-0.05 0.09 -0.1 0.19 -0.15 0.28 -0.18 0.17 -0.37 0.35 -0.55 0.51 0.12 -0.24 0.23 -0.47 0.35 -0.7 0.12 -0.03 0.24 -0.05 0.35 -0.09Zm-62.42 -211.91c0.3 -0.16 0.61 -0.32 0.91 -0.49l-0.71 0.71c-0.17 0.01 -0.34 0.01 -0.51 0.01 0.1 -0.08 0.21 -0.15 0.31 -0.23Zm-34.4 816.85c0.05 8.3 -0.14 16.66 -1.05 24.9 -1.38 12.44 -8.52 20.67 -20.39 24.61 -12.42 4.11 -24.69 5.13 -36.64 -1.79 -9.74 -5.64 -15.13 -13.75 -15.14 -25.16 0 -8.32 0.03 -16.65 0.03 -24.97 0 -32.29 0 -64.59 -0.01 -96.88 0 -36.29 -0.01 -72.58 0.02 -108.86 0 -5.33 -0.15 -10.68 0.33 -15.97 2.22 -24.15 23.81 -37.87 46.8 -29.63 14.47 5.18 23.37 15.2 24 31.05 0.56 14.3 0.61 28.63 0.73 42.94 0.49 59.92 0.97 119.84 1.32 179.76Zm-2.68 -895.24c-0.27 0.15 -0.55 0.31 -0.82 0.46l-0.84 0.24c0.22 -0.15 0.45 -0.29 0.67 -0.44 0.33 -0.09 0.66 -0.17 0.99 -0.26Zm-27.68 121.39c0.02 0.05 0.04 0.09 0.06 0.14 -0.05 -0.02 -0.11 -0.03 -0.16 -0.04 0.03 -0.02 0.05 -0.04 0.08 -0.06 0.01 -0.01 0.01 -0.03 0.02 -0.04Zm-11.2 45.19c1.83 -1.95 3.66 -3.9 5.49 -5.84 0.36 0.24 0.73 0.48 1.09 0.73 -0.85 1.63 -1.7 3.26 -2.54 4.89 -1.37 0.09 -2.73 0.18 -4.1 0.28l0.06 -0.06Zm2.33 -32.2c-0.04 0.05 -0.09 0.11 -0.14 0.16 -0.09 0.01 -0.18 0.03 -0.27 0.06 0.05 -0.06 0.11 -0.11 0.16 -0.17 0.09 -0.01 0.17 -0.03 0.25 -0.05Zm-17.52 1097.06c0.13 63.99 0.49 127.99 0.07 191.98 -0.14 21.6 -0.94 43.39 -3.93 64.75 -4.67 33.34 -20.47 62.36 -39.65 89.6 -2.11 2.99 -3.97 6.22 -6.41 8.9 -2.38 2.61 -5.09 5.21 -8.17 6.81 -3.76 1.96 -7.01 3.67 -7.15 8.53 -0.13 4.52 2.73 6.41 6.28 7.92 0.58 0.25 1.01 0.85 1.98 1.72 0 21.2 -0.05 42.84 0.05 64.47 0.02 4.86 -3.39 5.73 -6.81 7.24 -2.73 1.2 -7.5 0.44 -7.2 5.34 0.32 5.3 4.54 5.85 8.7 6.2 1.3 0.11 2.58 0.45 5.23 0.93 0.38 39.7 2.38 79.43 0.94 119.9 -11.27 2.47 -21.34 1.95 -32.74 0.73 0 -4.23 0.04 -7.8 0 -11.38 -0.7 -61.32 -0.36 -122.67 -2.34 -183.95 -3.64 -112.62 -4.83 -225.25 -5.06 -337.9 -0.06 -28.99 1.01 -57.98 1.67 -86.97 0.11 -4.62 0.79 -9.23 -0.18 -14.3l-1.66 -0.98c18.05 -30.39 34.98 -61.38 49.81 -93.53 0.53 -1.14 1.36 -2.14 2.54 -3.97 -2.2 124.48 -0.48 248.01 -1.86 370.55 6.05 -15.92 5.44 -33.49 5.55 -51.03 0.55 -92.65 1.11 -185.31 1.86 -277.96 0.11 -14.32 0.94 -28.65 2.01 -42.93 0.42 -5.54 1.79 -11.23 3.85 -16.4 7.4 -18.54 15.24 -36.91 22.99 -55.31 1.9 -4.51 4.08 -8.9 6.12 -13.34 0.81 0.09 1.62 0.19 2.42 0.28 0.17 3.37 0.49 6.75 0.5 10.12 0.22 74.66 0.44 149.32 0.59 223.98Zm-8.51 -835.58c-0.05 0.19 -0.1 0.39 -0.16 0.58 -0.2 0.36 -0.4 0.73 -0.6 1.09l0.39 -1.25c0.12 -0.14 0.24 -0.28 0.37 -0.42Zm-51.24 -279.56 1.39 2.22c-4.75 3.51 -9.49 7.02 -14.24 10.53 0.59 0.61 1.18 1.21 1.77 1.82l1.02 2.18c-2.14 1.12 -4.45 1.93 -7.2 2 -2.48 0.06 -4.92 3.07 -7.32 4.82 -2.54 1.87 -5.01 3.84 -8.71 4.49 1.77 -2.18 3.3 -4.63 5.35 -6.49 8.78 -7.96 17.98 -15.26 27.94 -21.57Z"/><path d="M1802.43 655.98c2.57 0.33 3.84 0.5 5.1 0.66 -0.13 0.11 -0.27 0.22 -0.4 0.34 -5.37 4.48 -10.69 9 -16.12 13.41 -6.82 5.54 -13.99 10.7 -18.62 18.5 1.41 -0.14 2.39 -0.78 3.3 -1.51 10.1 -8.12 20.28 -16.15 30.27 -24.42 8.64 -7.15 17.06 -14.57 25.58 -21.87 3.36 -2.07 6.77 -4.06 10.08 -6.22 9.18 -6.01 18.01 -12.64 27.55 -18.01 17.4 -9.79 35.21 -18.84 52.84 -28.22 2.64 -1.4 5.25 -2.86 7.86 -4.29 -0.45 -0.75 -0.9 -1.5 -1.35 -2.24 -34.65 12.83 -67.19 29.32 -97.32 50.95a364.665 364.665 0 0 0 -28.77 22.92Zm-61.23 -50.7 13.63 -10.78c-0.39 -0.53 -0.78 -1.05 -1.16 -1.57l-1.39 -2.22c4.35 -2.76 8.84 -5.33 13.5 -7.7 12.13 -6.15 23.69 -13.51 35.17 -20.87 27.85 -17.86 57.77 -31.65 87.66 -45.55 2.86 -1.33 5.61 -2.86 8.17 -4.85 -23.78 6.39 -47.14 13.99 -68.92 25.48 -68.41 36.06 -126.06 85.43 -175.91 144.16 -14.77 17.4 -25.42 37.4 -34.13 58.45 -10.75 25.96 -12 53.05 -9.51 80.55 0.93 10.27 2.3 20.5 3.63 32.19 -9.08 2.41 -18.21 4.83 -28.48 7.56 -1.41 -4.33 -2.82 -7.93 -3.75 -11.65 -16.74 -67.04 -4.52 -128.58 34.52 -185.37 23.47 -34.17 52.19 -63.23 85.08 -87.98 24.98 -18.81 50.56 -37.07 77.31 -53.19 26.45 -15.94 54.71 -28.89 82.14 -43.2 1.98 -1.04 3.81 -2.38 5.68 -3.63l0.84 -0.24c0.27 -0.15 0.55 -0.31 0.82 -0.46 2.06 -0.55 4.12 -1.1 6.17 -1.65 -0.18 -0.51 -0.35 -1.03 -0.53 -1.54 -1.88 1.07 -3.76 2.12 -5.64 3.19 -0.33 0.09 -0.66 0.17 -0.99 0.26 -0.22 0.15 -0.45 0.29 -0.67 0.44 -7.35 2.13 -14.98 3.63 -21.92 6.69 -18.85 8.35 -38.01 16.3 -55.89 26.45 -41.76 23.72 -81.85 49.99 -118.06 81.86 -31.11 27.39 -56.56 59.29 -76.71 95.31 -21.59 38.59 -29.7 80.26 -25.75 124.29 1.37 15.31 3.8 30.39 9.07 44.91 0.65 1.8 0.96 3.73 1.75 6.89l-32.49 8.16c-1.63 -3.36 -3.36 -5.85 -4.1 -8.6 -9.55 -35.44 -14.44 -71.24 -6.51 -107.68 5.49 -25.26 16.43 -48.52 28.37 -71.25 22.9 -43.6 54.54 -80.46 90.44 -113.65 37.27 -34.44 76.61 -66.18 122.53 -88.89 11.86 -5.86 22.9 -13.36 33.65 -21.66 -2.28 0.86 -4.55 1.73 -6.82 2.59 -49.27 18.61 -91.86 47.95 -132.19 81.22 -40.48 33.39 -74.63 72.27 -102.76 116.4 -15.41 24.18 -28.75 49.65 -36.61 77.39 -12.26 43.31 -9.27 86.32 4.45 128.85 0.59 1.82 1.29 3.61 2.33 6.51 -11.8 2.81 -23 5.48 -35.48 8.45 -2.76 -6.63 -5.88 -12.49 -7.63 -18.72 -2.7 -9.6 -4.39 -19.48 -6.66 -29.2 -1.11 -4.75 -2.57 -9.41 -4.92 -13.86 2.41 20.92 2.13 42.2 10.83 63 -19.6 5.7 -39.3 8.4 -59.57 12.3 -2.19 -4.25 -4.53 -8.2 -6.33 -12.38 -26.43 -61.44 -21.95 -121.29 9.2 -179.83 11.66 -21.92 27.86 -40.57 42.64 -60.25 29.14 -38.79 62.48 -73.61 99.26 -105.22 25.77 -22.14 50.7 -45.29 79.07 -64.23 0.35 -0.24 0.42 -0.9 1.61 -3.66 -50.93 31.42 -96.41 66.3 -135.69 108.68 -45.96 49.6 -87.24 102.75 -116.68 164.23 6.15 -9.96 12.3 -19.91 18.45 -29.87 -27.93 60.65 -30.53 121.09 -0.26 182.76 -19.14 5.08 -38.49 6.63 -58.5 8.21 -7.6 -19.03 -14.09 -37.84 -17.12 -57.59 -6.45 -42.13 1.57 -82.1 18.53 -120.76 27.21 -62.02 68.6 -113.01 120.51 -155.87 35.75 -29.52 72.71 -57.46 113.12 -80.31 17.33 -9.79 35.88 -17.45 54.04 -25.71 37.58 -17.09 75.22 -34.03 112.94 -50.82 11.21 -4.99 22.75 -9.26 33.99 -15.07 -2.26 0.35 -4.55 0.57 -6.77 1.08 -33.65 7.67 -65.33 20.71 -96.19 35.81 -38.27 18.73 -76.62 37.33 -114.44 56.94 -29.35 15.22 -55.77 35.17 -81.9 55.3 -30.69 23.64 -59.41 49.53 -83.97 79.63 -32.73 40.12 -58.72 83.97 -72.6 134.35 -12.07 43.84 -9.87 86.97 5.84 129.52 1.04 2.81 2.01 5.64 2.99 8.47 0.53 1.55 1.02 3.12 1.51 4.63 -7.62 4.6 -29.66 7.95 -47.13 7.12 -6.24 -10.17 -8.08 -22.08 -10.53 -33.7 -8.57 -40.61 -4.01 -80.01 10.76 -118.66 12.84 -33.62 31 -64.02 52.78 -92.51 6.2 -8.11 11.29 -17.06 17.38 -26.38 -6.08 1.93 -6.24 1.8 -8.56 4.52 -33.58 39.39 -61.44 82.21 -76.19 132.32 -12.08 41.03 -10.63 82.25 1.04 123.23 1.07 3.78 2.11 7.57 3.52 12.64 -12.19 1.94 -23.65 2.92 -35.13 2.66 -1.79 -0.04 -4.39 -3.89 -5.05 -6.39 -2.47 -9.32 -4.6 -18.76 -6.28 -28.25 -8.69 -49.15 -0.32 -95.98 18.8 -141.56 13.95 -33.24 32.72 -63.3 57 -89.81 26.1 -28.5 52.1 -57.13 79.35 -84.52 16.87 -16.96 35.95 -31.72 54.08 -47.42 19.33 -16.75 38.7 -33.44 57.56 -51.09 -2.17 1.12 -4.53 1.99 -6.49 3.4 -42.48 30.6 -83.95 62.5 -120.78 99.88 -24.54 24.91 -48.74 50.21 -72.19 76.15 -36.48 40.35 -60.07 87.83 -72.9 140.44 -10.23 41.98 -8.43 83.92 4.46 125.27 0.38 1.21 0.45 2.52 0.76 4.33 -2.44 0.68 -4.57 1.66 -6.76 1.82 -11.3 0.82 -22.61 1.61 -33.93 2.06 -7.83 0.31 -9.4 -0.47 -11.26 -8.22 -3.09 -12.92 -5.55 -26.02 -7.81 -39.13 -9.43 -54.81 3.4 -105.89 26.9 -154.92 22.45 -46.84 52.01 -88.96 85.42 -128.67 33 -39.22 70.24 -73.93 110.04 -105.87 34.85 -27.96 72.4 -52.15 111.1 -74.5 21.62 -12.49 43.34 -24.82 64.99 -37.26 2.85 -1.64 5.57 -3.51 7.65 -6.92 -6.8 2.62 -13.68 5.05 -20.39 7.89 -28.33 11.98 -54.24 28.43 -80.56 44.07 -62.21 36.96 -118.94 81.14 -169.11 133.22 -44.53 46.23 -83.8 96.63 -112.86 154.33 -14.29 28.37 -25.32 57.87 -31.48 89.17 -7.77 39.53 -2.89 78.24 6.58 116.75 0.55 2.26 1.18 4.5 1.59 6.79 0.16 0.9 -0.16 1.89 -0.37 3.84 -18.29 0.39 -36.57 0.79 -54.85 1.16 -6.01 0.11 -8.74 -4.02 -11 -8.7 -6.71 -13.89 -11.2 -28.53 -13.75 -43.68 -10.51 -62.47 3.38 -120.45 33.27 -175.19 23.8 -43.58 53.43 -82.77 90.39 -116.19 11.01 -9.95 22.11 -19.81 33.19 -29.69 1.41 -1.26 2.9 -3.25 4.63 -0.29 -12.08 10.18 -21.67 22.7 -32.28 34.28 12 -10.24 24.46 -20.01 33.16 -33.45 0.82 -0.53 1.79 -0.92 2.45 -1.61 42.79 -44.99 92.92 -80.87 144.13 -115.24 52.41 -35.17 107.64 -65.35 166.79 -87.67 36.42 -13.74 73.47 -25.79 110.23 -38.61 1.75 -0.61 3.45 -1.37 4.99 -2.53 -21.08 1.68 -41.22 7.2 -61.25 13.42 -90.5 28.12 -173.53 71.19 -251.1 125.23 -39.43 27.47 -77.32 56.75 -112.02 90.14 -15.1 14.52 -31.5 27.74 -47.79 40.95 -19.85 16.11 -36.12 35.45 -51.73 55.41 -20.98 26.82 -40.15 54.88 -54.11 86.09 -15.24 34.07 -25.03 69.77 -25.53 107.18 -0.44 32.8 3.57 65.19 18.63 95.19 0.44 0.87 0.63 1.87 1.23 3.73 -11.3 2.59 -22.58 2.2 -33.7 1.28 -2.79 -0.23 -6.08 -4.04 -7.69 -6.99 -3.18 -5.81 -5.54 -12.09 -7.88 -18.31 -18.47 -48.96 -18.2 -99.05 -9.07 -149.71 8.33 -46.18 27 -88.36 49.9 -128.85 33.43 -59.12 76.46 -110.69 126.22 -156.56 19.06 -17.57 40.35 -32.7 60.35 -49.27 21.37 -17.72 45.34 -31.59 68.27 -47 3 -2.02 5.96 -4.1 8.18 -7.69 -2.68 1.24 -5.43 2.35 -8.04 3.73 -62.9 33.49 -118.87 76.17 -167.33 128.34 -20.61 22.18 -41.02 44.85 -58.79 69.29 -33 45.38 -61.33 93.7 -78.02 147.79 -15.96 51.72 -20.99 104.33 -9.96 157.84 3.39 16.4 9.02 32.01 16.44 47 1.41 2.86 2.7 5.78 4.58 9.79 -4.49 0.33 -7.69 0.83 -10.88 0.76 -17.99 -0.36 -35.99 -1.4 -53.97 -1.1 -8.72 0.15 -13.66 -3.79 -17.69 -10.4 -9.4 -15.43 -17 -31.7 -22 -49.08 -9.26 -32.15 -10.78 -64.85 -7.37 -98.03 6.03 -58.55 29.13 -110.3 61.78 -158.41 35.17 -51.84 79.36 -94.87 128.5 -133.3 52.02 -40.69 105.64 -78.95 162.64 -112.45 40.88 -24.04 83.91 -43.53 127.43 -62.08 50.6 -21.57 102.09 -40.61 155.2 -55.1 2.22 -0.6 4.38 -1.42 6.44 -3.49 -2.58 0.32 -5.17 0.54 -7.73 0.99 -52.48 9.09 -102.21 26.89 -151.37 46.86 -100.73 40.92 -192.76 96.39 -278.49 163.02 -36.16 28.1 -70.85 57.62 -101.45 91.66 -42.39 47.17 -78.63 98.4 -99.41 159.08 -11.88 34.67 -16.89 70.41 -15.34 107.15 1.65 39.27 13.48 75.08 34.56 108.04 0.32 0.51 0.29 1.24 0.59 2.68 -8.21 0 -16.32 0.41 -24.37 -0.09 -15.96 -1 -31.87 -2.71 -47.83 -3.7 -7.16 -0.44 -11.55 -3.63 -14.65 -9.98 -10.04 -20.53 -16.61 -42.04 -19.47 -64.71 -6.08 -48.26 0.98 -95 16.36 -140.74 16.79 -49.91 40.21 -96.52 71.27 -139.05 22.9 -31.36 50.53 -58.47 79.58 -84.08 24.02 -21.16 48.7 -41.71 76.36 -57.92 45.97 -26.93 92.14 -53.57 138.99 -78.91 83.14 -44.98 170.73 -79.55 260.72 -108.17 2.76 -0.87 5.46 -1.94 7.76 -4.63 -9.39 1.89 -18.83 3.54 -28.15 5.7 -42 9.69 -82 25.16 -121.8 41.49 -82.81 33.98 -161.37 75.96 -237.71 122.51 -38.55 23.51 -75.13 49.48 -108.84 79.39 -13.94 12.37 -27.14 25.65 -39.89 39.26 -58.36 62.26 -98.04 134.97 -119.35 217.52 -13.03 50.46 -13.23 100.87 4.63 150.48 3.56 9.89 8.31 19.35 12.85 29.81 -23.03 -2.8 -45.46 -5.6 -67.91 -8.19 -5.06 -0.58 -7.38 -3.92 -9.66 -7.71 -10.82 -17.92 -17.2 -37.49 -20.9 -57.93 -9.18 -50.73 -1.6 -99.4 18.3 -146.58 14.32 -33.96 33.34 -65.26 54.38 -95.3 26.23 -37.46 55.8 -72.25 89.02 -103.74 32.47 -30.77 68.35 -57.41 103.9 -84.45 50.76 -38.61 104.91 -71.96 159.83 -104.13 26.13 -15.32 52.79 -29.75 79.21 -44.59 2 -1.12 3.97 -2.29 5.35 -5.14 -3.37 1.15 -6.77 2.19 -10.08 3.46 -32.46 12.45 -62.71 29.32 -92.78 46.52 -72.74 41.61 -141.84 88.57 -206.96 141.3 -35.02 28.37 -67.55 59.44 -96.33 94.22 -14.65 17.69 -29.6 35.25 -42.76 54.03 -29.55 42.16 -54.98 86.59 -68.09 137.01 -13.2 50.84 -12.28 100.86 8.89 149.67 1.46 3.36 2.89 6.73 4.48 10.03 1.57 3.23 3.34 6.37 5.41 10.28 -22.06 -2 -42.96 -5.43 -63.72 -10.04 -7.44 -1.65 -12.51 -5.74 -16.28 -12.05 -10.88 -18.21 -18 -37.86 -21.83 -58.66 -8.62 -46.74 -0.55 -91.4 17.1 -134.86 16.2 -39.88 39.58 -75.31 66.16 -108.9 18.42 -23.3 38.03 -45.46 59.35 -66.15 40.77 -39.55 85.11 -74.69 131.46 -107.4 69.83 -49.28 143.36 -92.26 220.17 -129.69 38.82 -18.93 79.91 -31.24 121.41 -42.53 31.79 -8.64 63.38 -18.03 95.13 -26.84 14.75 -4.09 29.66 -7.59 44.5 -11.34 3.73 -0.94 7.47 -1.82 10.88 -4.51 -25.86 4.44 -52.09 7.37 -77.48 13.67 -39.72 9.86 -78.92 21.82 -118.24 33.23 -39.49 11.45 -76.76 28.32 -113.44 46.7 -91.17 45.68 -176.65 100.31 -256.89 163.11 -33.88 26.52 -66.25 54.95 -94.9 87.14 -37.08 41.67 -70.28 86.11 -93.81 137.22 -19.04 41.35 -28.86 84.34 -25.56 129.91 2.07 28.68 10.6 55.48 25.47 80.18 1.03 1.69 1.99 3.42 2.94 5.16 0.14 0.26 0.02 0.66 0.02 2.17 -6.53 -1.36 -12.93 -2.53 -19.25 -4.03 -13.27 -3.17 -26.44 -6.81 -39.79 -9.67 -8.93 -1.91 -14.69 -7.16 -19.09 -14.7 -12.23 -20.94 -20.67 -43.21 -24.13 -67.27 -6.89 -47.96 -0.21 -94.28 17.14 -139.24 17.29 -44.78 41.95 -85.41 70.74 -123.61 46.77 -62.04 103.35 -113.77 166.74 -158.35 75.41 -53.04 154.99 -98.78 238.87 -137.01 28.77 -13.12 57.79 -25.69 86.69 -38.55 1.47 -0.65 2.82 -1.58 3.78 -3.71 -5.6 1.69 -11.26 3.23 -16.8 5.1 -64.86 21.94 -126.88 50.23 -186.7 83.46 -46.9 26.06 -93.13 53.13 -136.63 84.74 -46.25 33.6 -89.92 70.15 -128.37 112.46 -45.57 50.13 -82.87 105.87 -108.43 168.94 -13.64 33.68 -21.24 68.76 -21.09 105.16 0.16 40 8.1 78.08 31.03 111.89 0.53 0.79 0.67 1.83 1.43 3.98 -8.22 -2.57 -15.68 -4.72 -23.02 -7.25 -10.38 -3.58 -20.59 -7.67 -31.03 -11.09 -8.5 -2.8 -14.02 -8.32 -17.87 -16.2 -11.19 -22.9 -19.21 -46.74 -22.74 -72.07 -9.15 -65.69 5.68 -126.33 38.2 -183.32 29.68 -52.01 67.71 -97.23 111.99 -137.29 48.56 -43.94 101.42 -82.23 156.7 -117.18 60.91 -38.51 123.92 -73.12 191.06 -99.69 65.4 -25.88 132.23 -47.35 200.56 -64.1 7.11 -1.74 14.26 -3.31 21.38 -4.99 1.24 -0.29 2.44 -0.76 3.4 -2.52 -11.38 1.61 -22.74 3.33 -34.13 4.82 -41.88 5.47 -81.49 19.62 -121.51 32.06 -82.43 25.64 -159.81 62.63 -234.47 105.64 -48.02 27.66 -93.52 59.09 -137.55 92.57 -39.85 30.31 -76.86 63.94 -109.54 102.01 -37.88 44.1 -68.92 92.56 -86.75 148.2 -20.49 63.91 -19.07 127.26 10.47 188.7 2.15 4.49 4.69 8.8 7.59 14.21 -3.23 -0.84 -5.83 -1.11 -8.07 -2.15 -15.37 -7.16 -30.67 -14.48 -45.99 -21.74 -5.74 -2.72 -8.91 -7.5 -11.57 -13.12 -13.99 -29.52 -19.04 -60.77 -19.03 -93.16 0.02 -55.01 13.45 -106.89 37.16 -156.12 11.59 -24.06 26.46 -46.2 45.23 -65.52 14.62 -15.04 28.15 -31.21 43.48 -45.46 51.89 -48.21 108.07 -90.94 168.73 -127.57 36.49 -22.03 73.08 -43.95 110.37 -64.58 38.52 -21.3 79.51 -37.38 120.69 -52.81 31.47 -11.78 62.96 -23.48 94.48 -35.81 -9.1 1.68 -18.45 2.51 -27.24 5.2 -24.8 7.6 -49.61 15.3 -73.98 24.15 -53.91 19.56 -105.88 43.14 -155.97 71.45 -50.23 28.4 -99.89 57.47 -146.82 91.04 -47.01 33.63 -90.4 71.39 -129.95 113.64 -18.25 19.5 -34.73 40.33 -51.21 61.24 -7.21 9.14 -15.39 17.51 -22.61 26.64 -22.67 28.63 -41.18 59.68 -54.23 93.91 -13.43 35.21 -25 70.96 -32.07 108.04 -1.1 5.79 -1.82 11.65 -1.47 17.7 5.63 -19.46 11.3 -38.9 16.88 -58.38 11.78 -41.13 26.66 -81.04 48.96 -117.71 9.85 -16.19 21.27 -31.42 32.06 -47.03 2.82 -4.07 5.96 -7.91 10.27 -11.49 -0.65 2.15 -1.23 4.32 -1.97 6.44 -10.03 28.53 -23.24 55.88 -30.33 85.53 -5.24 21.91 -7.62 43.94 -7.19 66.33 0.14 7.76 -2.12 13.99 -6.99 20.07 -29.37 36.68 -46.58 78.78 -55.2 124.75 -4.99 26.65 -7.03 53.56 -7.09 80.54 -0.09 44.99 0.73 89.98 1.31 134.97 0.07 5.26 1.06 10.51 1.71 16.53 -11.2 2.7 -22.34 5.37 -34.36 8.27 -0.27 -2.35 -0.73 -4.48 -0.74 -6.61 -0.15 -74.33 -0.46 -148.66 -0.3 -222.99 0.08 -37.33 1.99 -74.59 7.48 -111.61 4.62 -31.13 14.07 -60.88 24.14 -90.56 19.94 -58.82 47.94 -113.4 84.48 -163.59 16.92 -23.23 36.49 -44.14 57.12 -64.09 61.24 -59.23 130.77 -107.17 204.29 -149.63 10.96 -6.33 22.34 -11.9 33.51 -17.86 2.02 -1.08 3.94 -2.35 5.3 -5.05 -8.13 3.07 -16.41 5.8 -24.36 9.27 -53.1 23.14 -102.07 53.22 -148.44 87.82 -46.16 34.43 -86.44 75.15 -126.55 116.13 -19.81 20.25 -40.13 39.99 -60.24 59.94 -0.92 0.92 -2.02 1.65 -4.67 3.77 1.29 -3.7 1.79 -5.67 2.64 -7.48 18.95 -40.41 44.34 -76.51 72.96 -110.6 54.67 -65.11 119.26 -118.06 194.14 -158.13 51.19 -27.38 104.79 -49.18 160.31 -66.45 49.11 -15.28 99.18 -26.07 149.93 -33.59 43.53 -6.46 87.46 -9.56 131.47 -10.26 56.99 -0.9 113.98 -2.01 170.96 -1.54 85.31 0.7 169.41 11.17 251.6 34.97 89.44 25.89 171.21 66.74 242.9 126.38 46.31 38.52 86.46 82.95 121.28 132.27 50.2 71.11 82.71 149.31 97.56 235.09 7.01 40.5 12.03 81.14 11.15 122.23 -1.52 71.72 -12.47 141.9 -37.14 209.58 -9.29 25.47 -22.44 49 -36.17 72.25 -13.39 22.66 -28.56 44.06 -46.49 64.99 -0.85 -2.69 -1.48 -4.67 -2.1 -6.65 -3.95 -12.54 -10.2 -23.81 -18.21 -34.22 -2.36 -3.08 -4.6 -6.67 -5.53 -10.37 -12.73 -50.36 -14.12 -100.8 0.17 -151.11 12.18 -42.88 28.86 -83.67 56.16 -119.52 9.87 -12.98 19 -26.53 28.36 -39.89 1.33 -1.89 2.22 -4.08 3.24 -6.18 0.18 -0.16 0.37 -0.34 0.55 -0.51 0.05 -0.09 0.1 -0.19 0.15 -0.28 3.33 -0.89 4.12 -3.59 3.69 -7.02 -1.23 2.35 -2.46 4.68 -3.69 7.02 -0.11 0.04 -0.23 0.06 -0.35 0.09 -0.12 0.23 -0.23 0.46 -0.35 0.7 -3.64 3.42 -7.45 6.64 -10.81 10.3 -42.33 46 -72 98.82 -85.59 160.15 -10.67 48.18 -10.34 96.4 0.88 145.81 -17.74 -3.81 -33.54 -12.98 -52.69 -10.9 -2.41 -9.52 -4.96 -18.72 -7.04 -28.03 -8.63 -38.66 -5.41 -76.92 5.41 -114.56 9.46 -32.94 19.65 -65.7 33.89 -97 0.92 -2.02 1.51 -4.18 1.18 -6.86 -0.69 0.86 -1.53 1.64 -2.06 2.6 -23.64 42.52 -41.46 87.16 -47.81 135.72 -4.36 33.37 -2.26 66.46 6.65 99.01 0.95 3.49 2.32 6.88 3.94 11.63 -10.58 4.96 -20.98 10.9 -32.1 14.78 -12.95 4.53 -25.95 -5.39 -26.22 -19.14 -0.38 -19.32 -0.33 -38.64 -0.39 -57.97 -0.19 -52.64 -0.47 -105.28 -0.43 -157.92 0 -11.64 0.44 -23.39 2.1 -34.88 1.16 -8.07 3.63 -16.37 7.42 -23.56 13.14 -24.86 30.25 -46.96 49.49 -67.44 33.52 -35.68 71.67 -65.62 112.87 -91.83 10.92 -6.95 21.87 -13.84 32.25 -22.09 -1.95 0.52 -3.96 0.88 -5.85 1.57 -27.83 10.21 -52.03 26.75 -75.83 43.89 -31.24 22.51 -58.81 49.09 -83.99 78.1 -15.76 18.14 -29.25 38.01 -39.67 59.76 -3.2 6.66 -7.39 11.15 -14.71 13.63 -9.74 3.29 -18.98 8.04 -28.49 12.03 -3.22 1.35 -6.6 2.3 -11.35 3.92 0.69 -3.66 0.88 -5.56 1.41 -7.35 3.08 -10.34 6.16 -20.69 9.57 -30.91 6.8 -20.39 14.92 -40.26 26.93 -58.38 10.08 -15.2 22.55 -28.8 33.6 -43.38 3.32 -4.37 5.48 -9.62 8.18 -14.46 1.61 -2.9 2.89 -6.07 4.94 -8.62 9.58 -11.91 19.37 -23.64 29.09 -35.44 0.82 -0.99 1.64 -1.99 3.8 -4.6 -3.65 0.93 -5.54 1.42 -7.41 1.89 2.58 -3.21 5.14 -6.41 7.7 -9.61 3.67 -2.89 7.35 -5.78 11.02 -8.68 -0.53 -0.62 -1.06 -1.23 -1.59 -1.85 -3.42 3.21 -6.84 6.42 -10.26 9.64 -3.22 4.13 -6.45 8.26 -9.67 12.4 -19.02 24.32 -38.22 48.5 -57.01 72.99 -18.53 24.16 -34.2 50.14 -44.87 78.67 -0.23 0.61 -0.46 1.23 -0.68 1.84 -4.52 12.4 -6.36 25.77 -9.59 38.66 -1.17 4.71 -1.83 10.11 -9.69 10.77 -0.53 -2.86 -1.64 -5.75 -1.78 -8.51 -0.03 -0.58 0 -1.16 0.06 -1.73 1.67 -12.83 3.62 -25.64 6.1 -38.34 2.46 -12.58 5.68 -25.02 8.56 -37.52 -0.87 -0.33 -1.75 -0.66 -2.63 -1 -2.27 4.51 -5.47 8.8 -6.61 13.58 -3.09 12.89 -5.42 25.97 -7.77 39.02 -0.76 4.24 -0.98 8.63 -0.91 12.94s0.28 8.62 0.52 13.19c0.18 3.4 0.39 6.95 0.58 10.75 -5.88 2.2 -12.88 4.82 -21.14 7.92 -1.24 -5.55 -2.71 -9.88 -3.14 -14.31 -2.91 -30.43 3.99 -58.86 18.05 -85.72 25.51 -48.75 62.26 -87.69 105.69 -120.77 0.5 -0.38 1.23 -0.45 1.86 -0.66 1.44 0.35 2.88 0.7 4.33 1.05 13.1 -8.3 26.19 -16.59 39.29 -24.88l18.81 -13.62c2.32 -1.83 4.44 -4.01 6.99 -5.44 15.61 -8.77 31.33 -17.37 48.68 -26.96 -3.56 0.72 -5.45 0.87 -7.19 1.48 -33.85 11.9 -64.28 30.12 -93.43 50.7 -0.31 0.26 -0.61 0.52 -0.91 0.79 -2.97 2.41 -5.94 4.82 -8.91 7.24l-0.61 0.47c-50.55 29.7 -89.72 70.42 -118.39 121.5 -19.01 33.87 -24.8 69.83 -18.61 107.95 0.1 0.62 -0.17 1.3 -0.42 2.99 -9.7 2.59 -19.8 5.28 -31.19 8.32 -0.95 -8.27 -1.91 -15.45 -2.59 -22.65 -5.29 -56.13 11.6 -105.1 48.41 -147.33 25.06 -28.75 52.87 -54.4 86.28 -73.46 3.65 -2.08 6.72 -5.17 10.05 -7.79 3.02 -1.48 6.04 -2.95 9.06 -4.43 -0.4 -0.62 -0.8 -1.25 -1.2 -1.88 -2.73 1.99 -5.45 3.98 -8.17 5.96 -2.99 1.31 -6.08 2.42 -8.94 3.97 -2.75 1.49 -5.22 3.42 -7.98 4.84l-1.02 -2.18Zm236.2 237.52c-0.57 0.81 -1.22 1.57 -1.68 2.44 -26.15 49.62 -42.82 102.21 -50.28 157.84 -3.78 28.15 -5.41 56.26 -2.22 84.53 0.21 1.86 1.19 3.62 1.82 5.43 1.84 -43.39 5.63 -86.01 13.59 -128.33 7.97 -42.36 21.73 -82.68 38.77 -121.91Zm-11.77 -150.58c-0.53 -0.52 -1.07 -1.04 -1.6 -1.56 -13.19 10.09 -26.44 20.11 -39.54 30.31 -5.78 4.5 -11.15 9.51 -16.92 14.01 -22.4 17.48 -42.88 36.84 -60.6 59.18 -16.67 21.03 -30.26 43.78 -41.11 68.24 -1.1 2.49 -1.62 5.23 -2.34 7.87 -0.13 0.14 -0.25 0.28 -0.37 0.42l-0.39 1.25c-1.88 3.4 -3.76 6.78 -5.64 10.18l2.16 0.9 3.48 -11.08c0.2 -0.36 0.4 -0.73 0.6 -1.09 0.06 -0.19 0.11 -0.39 0.16 -0.58 1.32 -1.5 2.87 -2.89 3.78 -4.61 9.63 -18.28 19.34 -36.46 33.99 -51.44 3.24 -3.31 6.17 -7.04 8.69 -10.94 13.5 -20.91 31.95 -37.42 48.95 -55.2 5.32 -5.56 11.58 -10.22 19.38 -12.6 -31.73 38.71 -63.21 77.37 -73.87 128.02 1.66 -2.82 3.18 -5.72 4.27 -8.78 6.75 -18.98 16.52 -36.31 28.29 -52.58 10.73 -14.84 22.32 -29.15 31.82 -44.75 14.25 -23.4 32.96 -42.56 52.85 -60.88 1.42 -1.31 2.64 -2.85 3.96 -4.29Zm-72.37 12.31c20.73 -17.77 41.78 -35.17 63.7 -53.58 -2.18 0.45 -3.21 0.43 -3.98 0.86 -6.96 3.92 -14.17 7.48 -20.77 11.95 -43.23 29.28 -78.94 66.15 -110.04 107.97 -20.6 27.69 -35.66 57.67 -43.68 91.19 -0.48 1.98 -0.65 4.03 -0.96 6.05 7.42 -14 13.4 -28.44 20.47 -42.32 23.84 -46.83 55.29 -87.86 95.26 -122.12Zm7.76 226.79c7.7 -32.74 20.58 -63.48 35.51 -93.39 -37.22 59.21 -54.61 123.05 -43.5 193.36 -0.05 -33.48 0.22 -67.01 7.99 -99.97Zm9.81 -382.6c-0.44 -0.6 -0.88 -1.2 -1.32 -1.79 -1.8 1.79 -3.61 3.59 -5.42 5.38 -0.3 0.17 -0.61 0.33 -0.91 0.49 -0.1 0.08 -0.21 0.15 -0.31 0.23 -0.84 0 -1.74 -0.11 -2.39 0.23 -14.88 7.84 -29.8 15.62 -44.54 23.72 -4.59 2.53 -8.93 5.7 -12.93 9.1 -2.82 2.4 -6.44 5.01 -4.59 9.72 -0.01 0.01 -0.01 0.03 -0.02 0.04 -0.03 0.02 -0.05 0.04 -0.08 0.06 -5.24 -1.53 -6.84 3.03 -9.09 6.41 3.02 -2.14 6.06 -4.28 9.09 -6.41 0.05 0 0.11 0.02 0.16 0.04 -0.02 -0.05 -0.04 -0.09 -0.06 -0.14 3.76 -7.06 10.49 -10.8 16.97 -14.55 11.88 -6.9 24.13 -13.16 36.06 -19.98 4.06 -2.32 7.64 -5.45 11.42 -8.24 0.17 0 0.34 0 0.51 -0.01l0.71 -0.71c2.25 -1.19 4.49 -2.39 6.74 -3.59Zm-58.69 374.98c7.24 -19.73 13.78 -39.76 24.72 -57.95 -15.28 16.37 -20.45 36.97 -24.72 57.95Zm-2.03 -498.95c-0.12 -0.59 -0.24 -1.18 -0.36 -1.76 -2.9 0.46 -5.83 0.77 -8.69 1.43 -24.36 5.6 -48.35 12.43 -71.35 22.36 -77.34 33.38 -146.84 77.83 -203.31 141.47 -27.12 30.57 -51.63 62.7 -70.75 98.86 -15.55 29.42 -26.7 60.12 -29.52 93.63 -2.32 27.56 -1.11 54.58 8.9 80.69 1.23 3.19 2.84 6.23 4.87 10.64 0.61 -2.44 1.05 -3.16 0.87 -3.65 -7.44 -20.45 -7.66 -41.77 -7.75 -63.13 -0.15 -30.73 5.63 -60.29 17.7 -88.51 15.17 -35.44 35.66 -67.58 60.03 -97.49 45.81 -56.23 100.19 -102.02 163.44 -137.44 29.73 -16.65 60.97 -29.77 92.96 -41.27 14.36 -5.17 28.64 -10.55 42.96 -15.83Zm4.97 163.62q-7.8 2.62 -10.6 9.15c4.04 -3.49 7.32 -6.32 10.6 -9.15Zm-16.76 14.11 -1.57 -1.66c-2.39 2.66 -4.79 5.31 -7.2 7.97 -0.08 0.02 -0.16 0.04 -0.25 0.05 -0.05 0.06 -0.11 0.11 -0.16 0.17 -5.32 0.97 -7.81 5.22 -11.33 8.28l1.59 1.8c3.25 -3.36 6.49 -6.72 9.74 -10.08 0.09 -0.03 0.18 -0.05 0.27 -0.06 0.05 -0.05 0.1 -0.11 0.14 -0.16 4.17 -0.7 6.15 -3.87 8.77 -6.31Zm-11.83 -93.88c-0.44 -0.71 -0.87 -1.43 -1.3 -2.15 -20 12.03 -39.99 24.06 -59.98 36.1 0.52 0.94 1.03 1.89 1.55 2.84 19.91 -12.26 39.82 -24.52 59.73 -36.79Zm-67.29 41.9 -1.41 -2.01c-4.06 2.88 -8.11 5.75 -12.16 8.63 0.5 0.55 1.01 1.09 1.52 1.64 4.02 -2.75 8.03 -5.51 12.05 -8.26Zm-25.85 -184.97c5.2 -2.12 10.28 -4.52 15.42 -6.79 -52.36 11.93 -99.54 34.44 -142.91 65 -18.49 13.03 -36.54 26.71 -54.56 40.39 -22.79 17.3 -45.37 34.88 -67.96 52.44 -2.66 2.07 -4.81 4.79 -7.19 7.21 29.47 -17.92 57.19 -37.97 86.27 -55.81 29.25 -17.95 59.85 -33.69 89.86 -50.39 -0.15 -0.36 -0.31 -0.72 -0.46 -1.08 -6.48 3.04 -12.96 6.08 -19.43 9.13 -6.32 2.97 -12.5 6.3 -19 8.81 -6.3 2.44 -11.96 7.05 -19.25 6.76 3.16 -3.18 6.85 -5.25 10.17 -7.8 3.85 -2.96 6.96 -7.06 11.09 -9.43 38.11 -21.9 77.22 -41.81 117.95 -58.44Zm8.57 -24.13c-20.55 3.93 -41.17 8.01 -60.88 14.75 -35 11.95 -68.68 27.32 -100.75 45.75 -50.2 28.85 -101.09 56.65 -148.05 90.74 -15.5 11.25 -29.88 24.03 -44.77 36.11 0.51 0.48 1.02 0.95 1.52 1.43 22.2 -15.24 44.1 -30.93 66.67 -45.59 22.59 -14.67 45.65 -28.63 68.85 -42.33 22.92 -13.53 45.86 -27.14 69.54 -39.25 23.96 -12.25 48.55 -23.42 73.42 -33.75 24.45 -10.15 49.6 -18.64 74.45 -27.86ZM1662 274.57c1.9 -0.66 3.65 -1.75 6.95 -3.36 -56 4.8 -220.93 80.4 -252.86 116.67 12.25 -6.51 24.73 -12.61 36.71 -19.59 66.41 -38.69 136.79 -68.46 209.2 -93.72Zm-115.76 9.82c-1.6 -0.96 -2.94 -1.09 -4.11 -0.7 -45.94 15.18 -88.07 37.79 -126.41 67.08 -23.26 17.77 -45.78 36.46 -70.82 51.71 -2.87 1.76 -5.77 3.46 -8.71 5.11 -8.98 5.05 -17.62 10.82 -25.91 16.93 -53.85 39.71 -103.07 84.19 -143.5 137.97 -13.29 17.68 -25.5 35.75 -33.78 56.31 -1.28 3.16 -2.51 6.34 -3.76 9.51 3.01 -2.37 4.5 -5.33 6.04 -8.25 9.34 -17.68 19.37 -34.87 32.09 -50.47 20.86 -25.61 43.21 -49.8 67.44 -72.21 17.35 -16.04 34.8 -32.01 52.81 -47.3 15.46 -13.12 31.6 -25.49 47.8 -37.69 3.49 -2.63 7.06 -5.23 10.96 -7.49 3.91 -2.26 8.15 -4.16 12.97 -5.39 -9.21 9.46 -17.67 18.27 -26.3 26.91 -2.04 2.04 -4.68 3.49 -6.96 5.27h-0.01c-0.07 -0.03 -0.15 -0.07 -0.23 -0.11 -0.01 0.13 -0.02 0.26 -0.01 0.4 -5.78 6.57 -11.56 13.16 -17.34 19.73 6.3 -4.39 11.75 -9.59 16.85 -15.11 0.84 -0.91 0.44 -2.96 0.49 -4.62 0.08 -0.09 0.16 -0.19 0.24 -0.28 4.03 2.08 5.75 -1.5 7.98 -3.57 32.53 -30.17 68.11 -56.62 103.46 -83.24 30.4 -22.89 64.46 -39.91 99.04 -55.72 3.27 -1.5 6.46 -3.18 9.68 -4.78Zm-107.51 466.25c9.52 -24.76 19.04 -49.52 28.56 -74.29 -14.06 23.06 -22.61 48.19 -28.56 74.29Zm-45.59 -113.91 9.51 -11.91c-0.6 -0.48 -1.21 -0.95 -1.81 -1.43 -3.18 3.85 -6.35 7.7 -9.52 11.54 0.61 0.6 1.21 1.2 1.82 1.8Zm2.37 -408.26c-0.41 -0.68 -0.82 -1.37 -1.23 -2.05 -5.66 2.23 -11.31 4.46 -16.96 6.69 0.21 0.54 0.41 1.08 0.62 1.62 5.86 -2.09 11.72 -4.17 17.57 -6.26ZM781.47 502.14c170.05 -154.17 361.94 -269.26 585 -334.76 -3.66 0 -5 -0.18 -6.27 0.03 -34.92 5.69 -69.16 14.17 -102.28 26.6 -47.12 17.7 -92.67 38.88 -137.46 61.85 -83.77 42.95 -164.32 90.95 -237.95 149.97 -34.88 27.97 -68.47 57.32 -97.64 91.39 -1.29 1.5 -2.27 3.27 -3.4 4.92Zm407.49 179.07 12.6 -24.9c-0.69 -0.33 -1.37 -0.67 -2.05 -1 -4.1 8.22 -8.19 16.44 -12.29 24.66 0.58 0.41 1.16 0.83 1.74 1.24Zm-44.21 -259.5c-2.02 -0.95 -3.32 -0.79 -4.22 -0.11 -7.18 5.4 -14.57 10.55 -21.35 16.42 -29.97 25.93 -58.29 53.62 -85.73 82.19 -24.27 25.28 -45.95 52.63 -62.54 83.68 -4.33 8.1 -7.89 16.61 -11.81 24.93 0.6 0.24 1.19 0.49 1.79 0.73 0.61 -0.78 1.39 -1.47 1.81 -2.33 13.15 -27.17 31.2 -51.1 50.14 -74.29 30.6 -37.47 65.79 -70.53 101.44 -103.09 10.2 -9.33 20.32 -18.75 30.47 -28.13Zm-1.46 89.99c-1.57 1.1 -3.25 2.08 -4.71 3.31 -3.56 3 -7.16 5.99 -10.51 9.22 -23.82 22.94 -45.31 47.9 -64.37 74.93 -16.79 23.83 -30.53 49.21 -38.73 77.35 -0.8 2.74 -1.31 5.56 -1.96 8.33 14 -32.69 31.94 -62.83 52.43 -91.57 20.54 -28.83 44.85 -54.44 67.85 -81.57ZM728.25 251.8c55.19 -23.47 110.38 -46.95 165.57 -70.43 -59.53 13.24 -115.05 35.95 -165.57 70.43Zm972.46 1428.23c5.05 -8.18 10.03 -16.38 14.94 -24.64l1.66 0.98c-1.37 3.8 -3.37 7.51 -3.99 11.43 -1.13 7.22 -2.01 14.56 -2.03 21.85 -0.23 65.66 -0.28 131.32 -0.3 196.97 -0.03 84.99 0.45 169.99 -0.07 254.97 -0.56 94.32 -1.99 188.62 -3.09 282.93 -0.06 5.25 -0.56 10.49 -0.91 16.75h-31.44c-0.36 -3.46 -1.01 -6.95 -1.04 -10.45 -0.31 -40.66 -0.52 -81.32 -0.78 -121.98 -0.74 -114.65 -1.5 -229.3 -2.22 -343.95 -0.05 -6.99 -0.04 -14 0.35 -20.98 0.41 -7.09 1.44 -14.14 -7.81 -16.73 -0.77 -0.21 -1.01 -2.31 -1.24 -2.89 -3.43 1.42 -6.86 2.73 -10.19 4.26 -2.65 1.21 -5.78 2.13 -7.66 4.14 -4.42 4.75 -2.69 12.24 3.13 14.91 2.38 1.1 5.02 1.61 7.89 2.5 2.05 16.23 1.73 86.79 -0.45 96.03 -3.06 0.23 -6.33 0.34 -9.54 0.77 -5.36 0.72 -9.32 4.42 -9.54 8.63 -0.21 3.99 3.81 7.94 9.35 8.79 2.92 0.45 5.92 0.35 9.95 0.55 2.17 18.9 1.04 37.77 1.31 56.56 0.28 19 0.27 38 0.26 57 0 18.88 -0.98 37.68 -2.67 56.54 -1.68 18.84 -0.04 37.96 -0.17 56.95 -0.13 18.96 -0.64 37.91 -1.01 58.13 -12.07 0.92 -23.2 0.48 -34.62 0.27 -0.54 -1.63 -1.28 -2.83 -1.28 -4.02 0.03 -17.32 0.16 -34.65 0.28 -51.97 0.01 -1.99 0.65 -4.18 0.05 -5.95 -4.11 -12.02 -2.42 -24.44 -2.5 -36.66 -0.68 -106.32 -1.24 -212.64 -1.6 -318.97 -0.12 -33.99 0.52 -67.98 0.63 -101.98 0.02 -7.21 1.62 -13.57 5.5 -19.8 27.08 -43.56 53.9 -87.29 80.85 -130.94Z"/><path d="M1704.15 779.41c1.95 -4 3.92 -7.99 5.87 -11.99 -1.94 4.01 0.86 10.49 -5.87 11.99Zm-0.06 0.37c1.48 2.43 1.62 4.77 0.69 7.46 -0.63 1.86 -1.77 3.89 -3.32 6.24 1.18 -6.03 1.94 -9.86 2.63 -13.7Zm-0.18 -0.31c0.08 -0.02 0.16 -0.03 0.24 -0.06 -0.03 0.05 -0.05 0.11 -0.08 0.16l-0.07 -0.04 -0.09 -0.06Z"/><path d="m1704.12 779.63 -0.03 0.15c-0.05 -0.1 -0.11 -0.21 -0.18 -0.31a1.27 1.27 0 0 1 0.21 0.16Zm-97.1 1650.89c-0.15 25 0.43 50.18 -0.59 75.48 -11.55 2.88 -21.72 1.54 -32.48 0.95 -0.58 -3.06 -1.44 -5.56 -1.48 -8.07 -0.35 -20.31 -0.61 -40.63 -0.72 -60.95 -0.02 -4.12 -0.61 -8.25 4.99 -10.59 3.66 -1.54 3.23 -10.67 -0.52 -11.89 -6.8 -2.2 -5.96 -7.11 -6.01 -12 -0.26 -23.66 1 -47.44 -1.01 -70.94 -4.33 -50.54 -2.27 -101.13 -3.38 -151.68 -0.14 -6.29 -0.02 -12.59 -0.02 -19.62 -3.4 -0.31 -6.2 -0.57 -10.2 -0.93 -0.14 4.51 -0.35 8.39 -0.36 12.27 -0.09 47.65 -0.15 95.3 -0.21 142.95q-0.02 13.35 -13.96 16.65c-0.69 3.32 -1.45 7.03 -2.33 11.28 5.57 0.74 10.08 1.33 15.33 2.02 0.22 3.88 0.63 7.47 0.59 11.06 -0.17 15.66 -0.45 31.32 -0.74 46.98 -0.15 8.45 -0.19 8.45 -8.01 13.51 -0.16 2.06 -0.42 4.35 -0.51 6.66 -0.1 2.31 -0.03 4.63 -0.03 7.48 2.98 0.79 5.7 1.52 8.7 2.31v75.14h-33.68c-0.27 -3.43 -0.72 -6.62 -0.74 -9.82 -0.09 -11.99 -0.14 -23.99 0 -35.98 0.06 -5.79 -1.4 -11.93 4.32 -16.56 1.19 -0.97 0.61 -4.38 0.52 -6.65 -0.32 -8.32 -0.77 -16.63 -1.17 -24.95 -0.24 -4.8 1.11 -9.89 -4.18 -13.44 -1.35 -0.9 -1.39 -4.27 -1.46 -6.52 -0.48 -14.98 -0.81 -29.97 -1.18 -44.96 -0.02 -1 -0.43 -2.27 0.03 -2.96 5.1 -7.6 2.89 -14.79 -0.56 -22.24 -1.03 -2.23 -0.38 -5.26 -0.41 -7.92 -0.98 -103.63 -1.95 -207.24 -2.92 -310.87 -0.03 -3.66 0.22 -7.33 0.07 -10.99 -0.56 -13.9 4.13 -26 11.74 -37.42 18.11 -27.15 36.02 -54.44 53.78 -81.82 7.6 -11.73 14.62 -23.84 21.95 -35.74 2.38 -3.88 4.89 -7.67 8.26 -12.93 -1.45 153.83 -2.88 305.74 -4.31 457.37 -18.59 3.55 -19.63 4.7 -16.64 17.66 2.57 0.89 5.35 1.87 8.15 2.81 2.49 0.83 4.99 1.61 8.83 2.85 0 10.61 -0.07 21.24 0.02 31.87 0.18 20.66 0.6 41.31 0.56 61.96 -0.01 5.29 1.26 11.36 -6.09 14.28 -2.96 1.18 -2.23 8.09 0.75 10.6 1.97 1.65 4.47 2.67 7.31 4.3Zm-13.85 -1156.14c0.72 11.91 -2.41 23.14 -7.23 33.84 -15.98 35.43 -41.49 62.33 -74.55 82.33 -39.82 24.08 -83.27 34.52 -132.99 34.41 -14.98 0.63 -33.07 -2 -50.9 -6.44 -37.94 -9.45 -65.71 -32.44 -85.79 -65.35 -5.3 -8.68 -8.33 -18.16 -7.11 -28.53 1.53 -12.85 9.37 -21.4 22.14 -23.53 6.21 -1.04 12.59 -1.41 18.89 -1.48 82.05 -0.9 162.37 -13.25 241.01 -36.54 10.82 -3.21 21.29 -7.59 32.02 -11.15 4.7 -1.56 9.57 -3.04 14.47 -3.52 16.71 -1.63 29.03 9.13 30.04 25.96Zm-98.54 661.95c7.35 24.34 11.44 49.09 11.07 74.76 -1.44 101.31 -2.27 202.64 -3.29 303.96 -0.07 6.73 0.08 12.55 -7.91 16.34 -6.35 3 -4.06 9.13 5.3 13.46v51.14c-3.69 2.17 -8.28 3.51 -10.46 6.58 -1.68 2.38 -0.33 6.9 -0.33 10.69 3.49 1.02 6.24 1.83 8.89 2.61v193.93c-11.31 2.63 -21.65 2.72 -32.84 0.44 -0.31 -3.93 -0.83 -7.52 -0.85 -11.12 -0.32 -56.33 -0.58 -112.66 -0.8 -168.99 -0.01 -1.91 0.05 -4.08 0.9 -5.7 2.73 -5.15 2.86 -9.6 -0.43 -14.88 -1.93 -3.08 -1.94 -7.65 -1.99 -11.56 -0.63 -52.66 -1.11 -105.32 -1.63 -157.99 -0.04 -3.95 0 -7.9 0 -12.52h-8.43c-1.54 60.79 -3.08 121.29 -4.61 181.5 -5.73 4.17 -13.81 4.88 -14.12 14.38 3.89 1.96 7.92 3.99 12.57 6.33v142.66c-11.47 3.71 -22.2 1.85 -34.35 1 0 -7.68 0.02 -14.57 0 -21.47 -0.03 -10 -0.03 -20 -0.18 -29.99 -0.08 -5.12 -0.02 -10.01 6.41 -11.67 -0.72 -2.18 -0.77 -4.55 -1.8 -5.11 -6.61 -3.54 -6.14 -9.67 -6.2 -15.63 -0.66 -63.33 -1.3 -126.65 -1.94 -189.98 -0.04 -3.93 0 -7.86 0 -12.23h-9.66v209.2c-5.71 2.52 -10.71 4.89 -9.36 11.63 0.31 1.54 0.88 4.14 1.68 4.28 6.41 1.12 5.26 6.08 5.31 10.15 0.52 44.33 0.9 88.65 1.42 132.98 0.07 5.83 -0.83 10.31 -7.48 12.3 -2.17 0.64 -4.95 4.37 -4.74 6.4 0.23 2.14 3.41 5.03 5.8 5.67 4.6 1.21 8.38 2.52 8.62 7.94 0.26 5.79 -0.36 11.55 -5.06 15.59 -10.34 8.89 -25.63 4.57 -30.24 -8.06 -1.61 -4.41 -0.45 -7.7 2.03 -11.11 3.7 -5.09 4.84 -9.93 -0.37 -15.13 -1.56 -1.55 -1.83 -4.87 -1.87 -7.4 -0.75 -42.99 -1.43 -85.98 -1.98 -128.98 -0.14 -10.68 0.09 -10.69 9.92 -14.66 0.5 -5.15 -2.46 -8.69 -6.43 -11.18 -3.65 -2.29 -4.42 -5.17 -4.44 -9.17 -0.26 -55.66 -0.68 -111.32 -0.94 -166.98 -0.02 -3.9 1.01 -7.8 1.38 -11.72 0.25 -2.64 0.7 -5.41 0.21 -7.96 -5.17 -26.99 -2.53 -54.33 -3.81 -81.48 -0.11 -2.28 -0.31 -4.56 -0.51 -7.43 -2.23 -0.2 -4.13 -0.53 -6.01 -0.49 -1.61 0.03 -3.2 0.49 -5.73 0.92v78.75c-7.37 4.36 -18.35 5.3 -13 18.21 2.6 0.54 5.76 1.2 9.93 2.07 0.17 3.33 0.53 6.87 0.51 10.41 -0.44 91.66 -0.92 183.32 -1.42 274.98 -0.03 5.61 0.96 12.03 -5.76 14.65 -7.9 3.09 -16.2 4.27 -24.26 0.48 -1.53 -0.72 -2.95 -3.04 -3.22 -4.8 -0.92 -5.9 -1.5 -11.87 -1.81 -17.84 -0.31 -5.97 5.14 -5.99 8.82 -7.19 1.68 -5.16 1.49 -9.33 -3.67 -11.28 -4.8 -1.81 -5.11 -5.43 -5.14 -9.63 -0.13 -17.34 -0.54 -34.67 -0.56 -52 -0.06 -42.99 1.7 -86.07 -0.42 -128.96 -1.91 -38.62 -1.16 -77.18 -1.89 -115.76 -0.3 -16 -0.02 -32 -0.01 -48v-10.43c-3.8 -0.2 -6.62 -0.36 -10.09 -0.55 -0.5 3.15 -1.19 5.67 -1.26 8.22 -0.29 9.99 -0.34 19.99 -0.57 29.99 -0.89 39.25 -1.82 78.5 -2.76 117.76 -0.05 1.98 -0.36 3.96 -0.54 5.83 -10.71 6.97 -10.98 7.55 -8.52 18.64 2.21 0.54 4.66 1.15 7.11 1.76 0.26 1.25 0.63 2.21 0.63 3.17 -0.2 50.66 -0.31 101.33 -0.78 151.99 -0.08 9.18 0.75 18.61 -3.66 27.42 -1.05 2.09 -0.18 5.23 0.05 7.87 0.64 7.57 1.89 15.12 2.03 22.69 0.28 16.33 0.08 32.67 -0.08 49 -0.04 3.91 -0.71 7.81 -1.15 12.39h-29.65c-0.3 -2.64 -0.74 -4.88 -0.79 -7.12 -0.57 -28.66 -1.06 -57.32 -1.63 -85.98 -0.12 -6.01 -0.62 -11.84 5.13 -16.27 1.94 -1.49 2.25 -5.08 3.56 -8.34 -3.58 -0.9 -6.04 -1.52 -9.23 -2.32 -0.22 -2.88 -0.62 -5.79 -0.63 -8.7 -0.09 -28.34 -0.13 -56.67 -0.11 -85 0.01 -4.8 -0.98 -9.79 4.65 -13.06 2.37 -1.38 2.34 -5.29 -1.11 -6.27 -4.43 -1.25 -4.5 -4.36 -4.51 -7.71 -0.06 -22.99 -0.11 -45.98 -0.05 -68.97 0.01 -2.27 1.09 -4.52 1.14 -6.79 0.07 -3.86 1.04 -8.56 -0.76 -11.39 -3.16 -4.98 -3.1 -9.91 -3.18 -15.21 -0.43 -27.33 -0.96 -54.66 -1.48 -81.98 -0.03 -1.64 -0.25 -3.27 -0.46 -5.76h-11.2v98.38c-9.7 2.49 -12.84 8.36 -9.94 17.75 1.7 0.71 3.73 1.56 5.46 2.29 1.59 4.23 -0.5 220.97 -2.25 226.75h-31.03c-0.33 -5.12 -0.8 -9.33 -0.83 -13.55 -0.29 -53.66 1.35 -107.42 -1.22 -160.97 -3.27 -67.96 -1.76 -135.9 -3.28 -203.83 -0.09 -3.97 -0.01 -7.93 -0.01 -12.51 -3.73 -0.25 -6.5 -0.43 -10.03 -0.66 -0.3 5.59 -0.74 10.53 -0.81 15.47 -0.83 57.32 -1.6 114.65 -2.38 171.97 -0.05 3.33 -0.3 6.69 -0.04 10 0.5 6.35 -2.37 10.1 -8.32 11.82 -3.88 1.12 -7.61 2.42 -8.92 8.3 2.57 0.76 4.85 1.7 7.22 2.08 7.13 1.13 7.56 1.48 7.95 8.6 0.09 1.66 0.05 3.33 0.06 5 0.08 88.99 0.18 177.99 0.24 266.99 0.01 16.62 -0.07 16.68 -16.56 16.09 -5.27 -0.19 -10.52 -0.76 -16.38 -1.19 -0.38 -3.08 -0.95 -5.61 -0.97 -8.15 -0.81 -92.66 -1.62 -185.32 -2.23 -277.98 -0.04 -6.51 1.77 -13.01 2 -19.54 0.09 -2.57 -1.92 -5.17 -2.8 -7.81s-2.26 -5.51 -2.3 -8.29c-0.33 -22.66 -0.52 -45.33 -0.42 -67.99 0.02 -3.45 1.04 -7.31 2.81 -10.25 2.88 -4.76 2.9 -9.08 -0.88 -12.67 -3.92 -3.73 -3.93 -8.03 -3.98 -12.76 -0.52 -51.66 -1.1 -103.32 -1.81 -154.98 -0.04 -3.12 2 -8.51 -4 -8.2 -4.85 0.25 -3.34 5.09 -3.35 8.03 -0.15 30.67 -0.04 61.33 -0.13 92 -0.07 21 -0.46 42 -0.49 62.99 -0.01 5.05 -0.65 9.22 -6 11.31 -4.42 1.73 -7.25 4.94 -6.89 9.9 0.33 4.71 3.9 6.6 7.91 7.91 1.25 0.4 2.4 1.13 4.57 2.18 0 3.23 0 6.83 -0.01 10.43 -0.02 13.67 -0.34 27.34 0 41 0.34 14.07 0.02 27.91 -5.31 41.26 -1.51 3.77 -3.42 8.3 2.1 11.25 0.73 0.39 0.81 2.42 0.81 3.7 0.06 12.95 0.04 25.9 0.04 39.98 -7.3 0.62 -13.76 1.17 -20.84 1.78 -0.12 8.44 -3.61 17.14 4.17 23.23 -0.38 5.52 -0.99 10.44 -1.01 15.35 -0.1 35.34 -0.07 70.67 -0.11 106 -0.01 5.24 0.78 10.51 -4.82 14.26 -3.32 2.23 -2.37 6.15 0.15 8.82 8.13 8.61 4.03 18.93 3.89 28.56 -0.03 1.69 -3.9 4.08 -6.38 4.77 -3.72 1.04 -7.78 0.85 -12.29 1.23v11.91c5.95 0.68 11.48 1.31 18.11 2.07 0.33 3.49 0.91 7 0.95 10.51 0.16 13 -0.21 26.02 0.31 39 0.29 7.22 -1.39 12.29 -8.87 14.38 -1.18 0.33 -2.14 1.51 -4.38 3.18 3.06 3.21 5.97 6.14 8.74 9.19 6.43 7.07 5.72 14.13 -2.33 19.15 -5.89 3.66 -12.35 4.99 -19.03 1.75 -8.89 -4.3 -11.11 -11.88 -5.93 -20.1 1.24 -1.96 2.46 -3.93 4.14 -6.63 -6.46 -4.68 -5.97 -11.71 -6 -18.63 -0.35 -78.33 -0.72 -156.66 -1.09 -234.99 -0.02 -5.93 0 -11.87 0 -18.15 4.63 -1.1 8.4 -1.99 12.55 -2.97v-8.81c-6.51 -1.49 -12.58 -2.87 -19.85 -4.52 -0.96 -20.87 -1.9 -41.34 -2.88 -62.7 -6.39 -0.35 -11.91 -0.66 -18.8 -1.03 -0.19 4.18 -0.53 7.99 -0.5 11.8 0.3 44.33 0.71 88.66 0.99 132.99 0.13 22.67 0.1 45.33 0 68 -0.02 4.22 -0.63 8.45 -1.03 13.43h-31.32c-0.25 -3.35 -0.7 -6.54 -0.7 -9.72 0.01 -20 0.17 -40 0.2 -60 0 -7.22 0.47 -13.74 8.27 -17.68 4.04 -2.04 2.93 -6.36 -1.65 -7.94 -2.13 -0.73 -4.47 -0.87 -7.65 -1.46v-61.81c3.69 -1.94 10.56 -3.9 8.5 -10.21 -1.29 -3.97 -6.51 -6.66 -11.13 -11.01 -0.07 -0.86 -0.47 -3.47 -0.49 -6.08 -0.39 -63 -0.79 -125.99 -0.99 -188.99 -0.01 -3.44 1.17 -7.18 2.78 -10.27 3.52 -6.75 4.32 -12.76 -0.36 -19.6 -2.21 -3.24 -2.81 -8.09 -2.84 -12.21 -0.31 -34.33 -0.31 -68.67 -0.4 -103 -0.01 -3.94 0 -7.87 0 -12.46l-9.98 -0.8v9.58c-0.04 32 0.03 63.99 -0.2 95.99 -0.05 7.26 -1.15 14.51 -1.81 22.23 -3.26 0.73 -5.81 1.17 -8.28 1.9 -4.4 1.29 -6.37 4.71 -6.81 8.94 -0.44 4.2 1.69 7.38 5.67 8.29 8.02 1.85 8.95 7.56 8.96 14.32 0.02 13 0.47 26 0.42 38.99 -0.19 46.67 -0.49 93.33 -0.82 139.99 -0.07 9.66 -0.35 19.27 -4.97 28.2 -1.78 3.46 -3.78 7.13 1.23 10.38 1.34 0.86 1.38 4.3 1.4 6.56 0.13 19.33 0.09 38.66 0.19 57.99 0.03 4.36 -0.83 7.73 -5.67 9.23 -3.08 0.96 -6.64 2.28 -6.24 6.65 0.42 4.76 4.04 5.52 7.91 5.91 0.91 0.1 1.78 0.69 3.12 1.25 0.43 31.59 0.89 63.23 1.28 94.86 0.05 4.33 -0.04 8.69 -0.51 12.98 -0.87 7.79 -2.07 8.96 -10.06 9.29 -6.96 0.29 -13.95 0.06 -21.94 0.06 -0.37 -3.27 -0.94 -6.1 -0.97 -8.94 -0.42 -42.99 -0.8 -85.99 -1.09 -128.99 -0.03 -3.97 0.64 -7.94 0.95 -11.92 0.21 -2.64 0.59 -5.3 0.47 -7.93 -0.53 -10.93 -1.67 -21.84 -1.77 -32.76 -0.59 -64.66 -0.97 -129.32 -1.33 -193.99 -0.02 -2.55 1.12 -5.1 1.19 -7.67 0.17 -6.03 2.89 -12.34 -3.13 -17.67 -1.64 -1.45 -1.21 -5.59 -1.22 -8.5 -0.12 -42.67 -0.14 -85.33 -0.26 -128 -0.02 -6.66 -0.37 -13.32 -0.75 -19.97 -0.19 -3.51 -1.04 -6.74 -6.59 -6.21 -1.45 54.12 -2.91 108.27 -4.36 161.98q-10.05 7.96 -9.2 17.3c1.98 0.71 4.11 1.47 6.21 2.22 2.13 3.95 1.04 66.57 -1.37 75.85 -5.5 1.47 -11.17 2.99 -16.56 4.43q0.07 9.48 7.48 10.13c2.33 0.2 4.65 0.39 6.96 0.68 0.61 0.08 1.16 0.53 3.25 1.54 0.93 43.76 1.18 88.26 -0.19 133.11 -4.47 1.93 -8.62 3.72 -12.8 5.52 -0.33 8.72 6.57 10.44 12.23 13.94 0.2 2.72 0.61 5.64 0.61 8.55 -0.11 50.67 -0.25 101.34 -0.44 152 -0.05 13.21 -0.13 13.24 -13.24 13.38 -5.93 0.07 -11.87 0.01 -18.65 0.01 -0.45 -4.85 -1.09 -8.71 -1.12 -12.58 -0.23 -39.33 -0.49 -78.66 -0.36 -117.99 0.02 -4.7 2.34 -9.38 3.58 -14 -1.01 -4.72 -3 -9.69 -3.02 -14.66 -0.18 -68.66 -0.12 -137.31 -0.02 -205.97 0.01 -4.29 0.81 -8.58 1.37 -12.86 0.7 -5.34 1.22 -10.41 -3.16 -14.9 -1.54 -1.58 -2.03 -4.7 -2.1 -7.14 -0.73 -27.98 -1.46 -55.96 -1.8 -83.94 -0.11 -9.14 -3.18 -14.98 -11.6 -19.84 -26.91 -15.53 -45.45 -38.12 -51.07 -69.3 -9.53 -52.9 13.47 -119.26 90.32 -136.19 3.14 -0.69 6.47 -0.49 10.17 -0.74 -3.77 13.89 1.85 24.87 8.36 35.23 12.06 19.22 30.74 29.12 52.04 34.38 24.29 6.01 49 9.23 74.03 10.88 27.69 1.82 55.3 1.71 82.9 -0.45 25.25 -1.98 50.43 -4.98 74.44 -13.72 7.46 -2.71 14.89 -5.98 21.62 -10.16 19.91 -12.38 30.64 -29.97 28.57 -54.13 25.61 -0.25 66.71 27.6 80.86 54.82 9.11 17.5 12.98 36.36 13.57 55.83 0.59 19.42 -4.84 37.42 -14.46 54.33 -9.73 17.12 -25.13 28.86 -39.79 41.49 3.59 5.17 7.68 4.65 11.14 2.77 6.39 -3.48 13.26 -6.77 18.41 -11.72 21.87 -21.07 37.56 -46 41.96 -76.56 7.24 -50.27 -12 -95.97 -54.7 -124.45 -24.96 -16.64 -52.74 -24.91 -81.72 -30.59 -21.53 -4.23 -43.3 -7.91 -64.29 -14.13 -29.04 -8.62 -52.5 -26.04 -68.07 -52.45 -5.34 -9.05 -8.37 -19.48 -12.36 -29.31 -1.21 -2.97 -2.1 -6.06 -3.82 -11.08 -2.97 7.58 -5.13 13.26 -7.4 18.89 -17.45 43.39 -51.56 66.79 -95.2 77.63 -21.6 5.37 -43.9 7.89 -65.73 12.45 -35.05 7.31 -66.22 22.07 -90.39 49.49 -9.15 10.38 -16.23 22.12 -20.65 35.08 -9.44 27.64 -12.2 55.93 -4.82 84.55 6.33 24.55 19.91 45.16 37.99 62.36 7.7 7.33 18.24 11.67 28.26 16.18 0.31 0.58 0.88 1.16 0.88 1.73 -0.09 28.66 -0.22 57.33 -0.37 85.99 -0.02 4.71 -0.39 9.24 -3.93 13.01 -2.93 3.12 -2.06 6.38 -0.19 10.06 1.71 3.37 2.98 7.4 3 11.14 0.17 36.33 0.13 72.66 -0.06 108.99 -0.04 7.58 -0.92 15.15 -1.43 23.02 -4.19 0.5 -7.43 0.91 -10.68 1.26 -3.75 0.4 -6.37 2.03 -6.52 6.13 -0.15 4.29 3.01 5.7 6.34 6.49 3.17 0.75 6.47 0.96 10.34 1.51v89.74c-10.47 2.21 -20.6 1.1 -31.57 0.85 -0.48 -5.93 -1.22 -11.16 -1.26 -16.39 -0.36 -47 -0.55 -94 -0.9 -140.99 -0.44 -60.33 -0.99 -120.66 -1.52 -180.98 -0.01 -1.95 -0.27 -3.9 -0.47 -6.54 -3.45 -0.29 -6.57 -0.55 -11.23 -0.95 -1.02 65.81 -1.58 130.7 -2.26 195.59 -0.68 64.94 -1.88 129.88 -2.87 195.74 -4.16 0.93 -7.93 1.77 -11.7 2.61 -2.58 0.57 -5.42 0.66 -7.65 1.87 -1.33 0.72 -2.5 3.31 -2.27 4.84 0.22 1.44 2.17 3.25 3.71 3.71 2.49 0.73 5.31 0.27 7.92 0.71 7.62 1.26 10.24 4.42 10.44 12.05 0.17 6.69 -1.21 12.86 -7.47 16.35 -6.93 3.86 -14.25 3.17 -21.15 -0.2 -4.47 -2.19 -5.15 -6.78 -5.08 -11.2 0.13 -7.65 0.91 -15.3 0.88 -22.95 -0.15 -36.66 -0.59 -73.32 -0.68 -109.99 -0.03 -9.93 0.81 -19.86 1.27 -30.39 7.69 -1.43 14.52 -2.69 23.18 -4.3 -7.9 -5.61 -15.8 0.4 -22.68 -4.59 -0.23 -2.89 -0.73 -6.46 -0.77 -10.04 -0.47 -41.66 -0.87 -83.32 -1.28 -124.98 -0.03 -2.92 0 -5.37 2.71 -7.92 3.38 -3.18 3.26 -11.85 -0.33 -14.48 -4.81 -3.54 -4.14 -7.94 -4.15 -12.48 -0.1 -61 -0.17 -121.99 -0.25 -182.99v-16.29c-5.8 1.11 -6.01 4.88 -6.24 8.41 -0.63 9.64 -1.44 19.29 -1.59 28.94 -0.84 52.66 -1.5 105.32 -2.21 157.98 -0.06 3.98 0 7.97 0 12.14 -4.68 3.06 -11.41 3.89 -10.52 11.65 0.61 5.28 -0.72 11.29 7.11 11.67v172.61c-12.19 1.45 -23.09 0.94 -34.55 -2.49 -0.21 -4.32 -0.58 -8.25 -0.57 -12.18 0.1 -32.99 0.28 -65.99 0.42 -98.98 0.01 -2 0.65 -4.46 -0.26 -5.92 -4.84 -7.7 -2.97 -16.17 -3.02 -24.29 -0.28 -55.27 -0.31 -110.54 -0.41 -165.82 -0.01 -3.96 0 -7.92 0 -13 -4.01 -0.28 -6.53 -0.46 -10.02 -0.71v201.07c-6.81 4.87 -15.65 7.33 -14.56 18.05 3.68 0.53 7.21 1.04 10.7 1.55 2.55 9.29 1.74 81.41 -1.15 96.92 -3.6 1.58 -7.45 3.27 -12.68 5.56 2.66 2.26 4.36 4.06 6.37 5.37 11.68 7.59 14.76 24.06 6.14 34.7 -5.24 6.48 -12.68 5 -19.52 4.1 -6.33 -0.83 -10.2 -5.27 -10.9 -11.42 -0.71 -6.25 -1.42 -12.89 -0.03 -18.87 1.09 -4.68 5.39 -8.61 8.51 -13.25 -7.27 -3.39 -9.2 -10.42 -9.31 -19.02 -0.57 -44.33 -1.48 -88.64 -2.3 -132.96 -0.24 -13.33 -0.51 -26.66 -0.89 -39.99 -0.16 -5.45 1.37 -11.48 -4.9 -15.11 -0.81 -0.47 -0.88 -2.42 -1.07 -3.72 -0.19 -1.31 -0.14 -2.66 -0.15 -3.99 -0.82 -89.32 -1.78 -178.64 -2.34 -267.97 -0.14 -22.31 0.67 -44.67 5.85 -66.58 4.05 -17.11 9.92 -33.6 17.25 -49.76 -5.19 38.31 -11.78 76.4 -6.25 115.42 0.44 -2.03 1.01 -4.05 1.3 -6.1 2.57 -18.19 6.71 -35.99 12.81 -53.33 16.24 -46.2 45.64 -82.27 84.88 -110.91 32.37 -23.64 68.77 -37.87 107.7 -45.62 22.17 -4.41 44.75 -6.74 67.1 -10.28 17.15 -2.72 33.91 -6.74 48.81 -17.65 -6.66 -12.57 -22.78 -13.89 -29.88 -25.8 6.75 -8.12 15.82 -10.28 25.25 -9.71 20.25 1.22 37.46 8.57 48.98 26.47 4.5 6.98 9.65 13.56 14.72 20.17 11.05 14.41 25.67 9.28 34.83 1.08 3.66 -3.28 6.28 -7.72 9.29 -11.7 4.41 -5.84 8.33 -12.11 13.18 -17.55 13.96 -15.66 32.12 -20.82 52.39 -19.1 6.89 0.59 13.81 2.49 18.09 8.94 -0.54 5.75 -4.88 7.9 -9 9.94 -4.76 2.36 -9.82 4.1 -14.67 6.3 -4.52 2.06 -9.2 4.08 -10.9 9.96 4.16 7.47 11.77 10.07 19.23 12.73 16.75 5.99 34.18 8.48 51.83 9.96 33.35 2.81 66.07 8.73 96.98 22.1 32.08 13.88 61.72 31.75 85.54 57.75 35.29 38.54 57.53 82.98 60.28 136.57 0.85 -3.88 1.97 -7.72 2.51 -11.64 2.89 -20.97 1.82 -41.88 -0.97 -62.78 -1.48 -11.08 -2.73 -22.2 -2.94 -33.76 3.01 7.66 6.56 15.16 8.94 23.02Zm-127.26 -32.23c0.33 -0.46 0.66 -0.92 0.99 -1.39 -9.61 -7.31 -18.57 -15.78 -28.97 -21.71 -26.27 -14.99 -53.18 -28.88 -79.87 -43.13a18497.08 18497.08 0 0 0 -72.25 -38.37c-3.61 -1.9 -7.42 -3.41 -11.13 -5.1 2.43 8.83 7.5 14.84 13.39 20.15 20.72 18.69 43.9 33.2 70.14 43.16 26.11 9.91 51.82 20.92 77.55 31.81 10.27 4.35 20.11 9.69 30.15 14.58Zm-281.7 548.95c13.32 0.26 16.1 -2.93 15.46 -16.49 -0.71 -14.89 -1.04 -29.8 -1.46 -44.71 -0.13 -4.23 -0.02 -8.47 -0.02 -13.59 -6.14 -0.28 -11.18 -0.5 -16.92 -0.77 -0.93 25.76 -1.82 50.3 -2.71 75.1 2.4 0.2 4.02 0.43 5.65 0.46Zm-39.15 -70.44c0.66 -1.29 0.93 -1.57 0.93 -1.86 -0.25 -86.89 -0.52 -173.78 -0.79 -260.67 0 -2.67 0.06 -5.33 -0.05 -7.99 -0.18 -4.52 -2.68 -5.62 -7 -4.29v274.46c2.88 0.15 4.81 0.25 6.91 0.35Zm-25.38 -592.15c-1.2 -0.09 -1.87 -0.36 -2.31 -0.15 -3.89 1.89 -7.75 3.83 -11.59 5.81 -38.44 19.8 -77 39.37 -115.24 59.55 -16.74 8.83 -33.07 18.54 -49.12 28.6 -9.55 5.98 -18.52 13.06 -25.68 24.68 10.17 -5.89 18.6 -11.05 27.27 -15.76 26.68 -14.49 55.03 -25.16 83.29 -36 27.3 -10.47 52.02 -25.31 74.36 -44.11 7.55 -6.34 14.66 -13.16 19.02 -22.62ZM1326.08 431.7c-0.08 0.09 -0.16 0.19 -0.24 0.28 -0.01 -0.14 0 -0.27 0.01 -0.4 0.08 0.04 0.16 0.08 0.23 0.12Z"/><path d="M996.4 2155.51v49.97h-0.15v-49.91l0.15 -0.06Zm-74.54 -854.52c20.32 1.39 29.99 12.84 27.6 33.13 -1.15 9.8 -5.03 18.58 -10.32 26.77 -20.73 32.14 -49.88 52.31 -87.33 59.66 -15.58 3.05 -31.58 3.97 -47.38 5.87 -43.59 -1.24 -84.92 -9.82 -122.69 -31.87 -33.83 -19.75 -60.79 -46.35 -77.4 -82.35 -3.45 -7.47 -5.24 -15.71 -7.78 -23.6 -0.2 -0.64 -0.36 -1.29 -0.44 -1.95 -3.71 -28.37 15.74 -45.72 41.8 -34.6 30.77 13.14 62.87 21.95 95.63 27.71 35.03 6.15 70.33 11 105.67 15.06 27.42 3.15 55.08 4.29 82.64 6.17ZM672.8 1961.43c2.1 3.53 3.76 8.1 3.55 12.09 -5.66 106.57 -1.92 213.26 -3.9 319.87 -0.04 1.67 -0.11 3.33 -0.08 5 0.06 4.14 -1.49 7.11 -5.81 8.08 -4.62 1.04 -6.82 3.87 -6.29 8.62 0.57 5.17 2.59 8.93 8.66 8.78 0.89 -0.02 1.79 0.71 3.25 1.32 0.2 2.43 0.6 5 0.61 7.58 0.04 30.33 -0.01 60.65 0.07 90.98 0 6.14 0.18 11.67 -7.17 14.62 -4.15 1.66 -4.27 7.25 0.19 9.57 7.76 4.02 7.08 10.38 7.01 17.08 -0.43 40.98 -0.82 81.97 -1.23 122.96 -0.02 2.34 -0.14 4.67 -0.23 7 -0.17 4.28 -2.61 6.94 -6.57 7.67 -8.15 1.5 -16.38 2.91 -25.12 0 -0.23 -3.06 -0.63 -5.99 -0.65 -8.92 -0.44 -45.99 -0.84 -91.98 -1.17 -137.97 -0.02 -3.82 0.22 -7.28 2.59 -11.14 2.79 -4.52 3.04 -10.6 -0.29 -16.08 -1.6 -2.62 -2.7 -5.97 -2.79 -9.03 -0.73 -24.31 -1.23 -48.64 -1.62 -72.96 -0.05 -3.59 1.24 -7.19 1.25 -10.79 0 -3.16 0.18 -7.87 -1.66 -9.2 -5.22 -3.75 -4.17 -8.64 -4.25 -13.45 -1.33 -75.64 -2.61 -151.28 -3.93 -226.92 -0.04 -2.26 -0.45 -4.53 -0.74 -7.26h-9.08v11.22c-0.09 26 -0.15 51.99 -0.29 77.99 -0.02 3.88 0.3 7.6 -2.85 11.17 -1.81 2.06 -1.56 6.29 -1.56 9.53 0.03 16 0.3 32 0.46 47.99 0.04 3.63 0.01 7.26 0.01 11.47 -4.59 1.2 -8.66 2.26 -13.14 3.43v8.29c4.98 0.36 9.54 0.68 14 1 0.49 0.67 1.22 1.21 1.22 1.74 0.03 21.3 -0.06 42.6 0.02 63.9 0 4.59 0.57 9.18 0.92 13.76 0.25 3.31 0.79 6.61 0.8 9.91 0.09 21.33 0.06 42.66 0.08 63.99 0.01 4.99 -0.41 9.51 -3.74 13.98 -3.81 5.12 -2.48 9.66 1.97 14.64 0.96 1.07 1.81 2.72 1.8 4.09 -0.17 18.99 -0.49 37.98 -0.81 56.96 -0.01 0.61 -0.5 1.2 -1.12 2.57H583.6c-0.31 -4.19 -0.79 -7.76 -0.8 -11.33 -0.11 -47.99 -0.16 -95.99 -0.22 -143.98 0 -0.99 0.04 -1.99 0.07 -2.99 0.13 -5.96 0.94 -11.47 8.59 -11.64v-9.01c-3 -1.45 -5.91 -2.84 -9.66 -4.64 1.25 -25.81 -3.01 -51.85 5.3 -77.78 -2.46 -1.24 -4.67 -2.36 -7.87 -3.97 0 -10.14 0.09 -20.79 -0.02 -31.43 -0.23 -22.99 -0.61 -45.99 -0.82 -68.98 -0.03 -3.48 0.11 -6.66 1.91 -10.31 2.15 -4.36 1.14 -10.27 1.52 -15.74 -3.25 -1.45 -5.88 -2.62 -8.46 -3.77 -0.32 -1.17 -0.77 -2.12 -0.8 -3.07 -0.47 -18.32 -1.16 -36.64 -1.29 -54.97 -0.55 -73.98 -0.88 -147.97 -1.41 -221.95 -0.08 -11.9 -0.79 -23.79 -1.24 -36.58 1.82 2.5 3.45 4.46 4.78 6.61 26.12 42.19 52.16 84.42 78.31 126.59 7.02 11.33 14.53 22.35 21.31 33.81Zm-109.3 172.14c-0.19 44.19 2 88.15 -2.36 132.13 -3.83 3.77 -10.92 4.93 -9.35 12.56 1.21 5.9 5.33 7.06 11.31 7 0 10.88 2.48 22.24 -0.55 31.87 -5.11 16.24 -0.66 32.25 -2.54 48.21 -0.62 5.24 -0.62 10.54 -0.96 16.73 -11.05 1.73 -21.47 0.99 -32.62 0.58 -0.29 -3.62 -0.71 -6.51 -0.72 -9.41 -0.11 -52.99 -0.2 -105.99 -0.18 -158.99 0 -4.95 -1.76 -10.44 4.96 -13.66 2.91 -1.39 1.75 -13.46 -1.67 -15.47 -4.46 -2.63 -4.3 -6.24 -4.39 -10.2 -0.3 -13.33 -0.9 -26.66 -0.81 -39.99 0.29 -40.32 0.85 -80.65 1.31 -120.97 0.05 -4.23 -0.09 -7.91 4.42 -11.1 4.5 -3.18 4.66 -9.11 0.67 -14.43 -3.98 -5.3 -4.29 -10.93 -4.31 -16.85 -0.15 -44.67 -0.24 -89.33 -0.34 -134 0 -3.3 0 -6.61 -1.47 -9.94l-0.96 153.75c-4.12 0.77 -7.12 0.94 -9.83 1.92 -8.71 3.16 -11.2 13.62 -4.31 19.81 3.42 3.07 3.13 6.34 3.14 9.87 0.09 45.99 0.11 91.98 0.15 137.98 0.01 10.63 0 21.26 0 32.61 -9.37 1.67 -11.98 7.33 -9.99 16.25 7.41 0.96 8.57 6.14 8.47 13.3 -1.05 76.65 -1.78 153.31 -2.65 229.97 -0.03 2.91 -0.49 5.81 -0.8 9.18h-33.2c-0.2 -3.84 -0.54 -7.37 -0.53 -10.89 0.04 -89.66 0.2 -179.32 0.17 -268.99 -0.06 -160.99 -0.2 -321.99 -0.4 -482.99 0 -13.66 -0.48 -27.33 -1.3 -40.97 -0.58 -9.57 -2.12 -19.08 -3.27 -28.99 0.92 1.26 2.18 2.41 2.74 3.83 12.27 30.77 29.77 58.78 46.02 87.44 12.15 21.43 24.81 42.59 37.63 63.64 5.2 8.53 7.95 17.49 8.09 27.37 0.18 11.99 0.48 23.99 0.48 35.99 -0.01 85.33 -0.09 170.67 -0.16 256 -0.01 4.33 -0.08 8.66 -0.26 12.99 -0.15 3.57 -1.29 6.58 -5.33 7.41 -4.51 0.94 -7.02 3.58 -7.02 8.3 0 5.17 2.87 7.84 7.68 8.95 1.26 0.28 2.41 1.03 5.04 2.2Zm-37.09 -319.45v-4.79c-0.11 0.05 -0.22 0.09 -0.33 0.14v4.66c0.11 -0.01 0.22 -0.01 0.33 -0.01ZM481.69 798.81c-7.3 -1.38 -9.66 -6.22 -13.9 -11.5 -0.31 3.94 -0.72 6.64 -0.7 9.33 0.48 86.66 1.01 173.32 1.5 259.98 0.03 5.33 0.24 10.7 -0.32 15.98 -1.21 11.21 -10.42 17.7 -21.33 14.99 -4.47 -1.11 -8.75 -3.13 -13.02 -4.96 -5.5 -2.35 -10.7 -5.89 -16.42 -7.17 -7.95 -1.78 -9.84 -6.63 -10.02 -13.61 -0.28 -11 -1.24 -21.99 -1.18 -32.97 0.24 -48.33 0.03 -96.67 1.39 -144.96 1.01 -35.41 6 -70.54 19.97 -103.45 6.46 -15.22 15.57 -29.33 23.7 -43.82 3.69 -6.58 7.93 -12.84 11.92 -19.25 2.28 28.01 6.05 54.87 18.41 81.41Zm-16.2 832.73c0.38 58.98 1.43 117.95 1.41 176.93 -0.04 113.3 -0.64 226.6 -1.01 339.9 -0.01 4.29 0 8.58 0 13.73h-17.44c-0.45 -3.81 -1.27 -7.65 -1.29 -11.49 -0.06 -19.99 -0.54 -40.01 0.35 -59.97 0.7 -15.81 -3.63 -29.34 -12.79 -42.01 -19.18 -26.54 -32.31 -55.86 -38.04 -88.21 -1.74 -9.79 -3.12 -19.82 -3.1 -29.74 0.31 -146.29 0.87 -292.58 1.42 -438.87 0.02 -6.53 0.4 -13.06 0.61 -19.59 0.89 -0.18 1.77 -0.36 2.66 -0.55 1.48 2.89 3.12 5.71 4.41 8.67 10.61 24.42 21.45 48.75 31.51 73.39 2.83 6.93 4.17 14.76 4.65 22.28 0.81 12.61 0.47 25.31 0.48 37.97 0.08 108.31 0.14 216.61 0.19 324.91 0 4.55 0.45 8.73 -3.97 12.52 -5.74 4.91 -3.37 14.56 3.55 18.1 6.98 3.57 18.95 -2.06 19.78 -9.72 0.22 -2.09 -1.38 -5.13 -3.12 -6.5 -2.52 -1.98 -5.92 -2.83 -9.44 -4.38 -0.14 -2.61 -0.37 -5.18 -0.38 -7.75 -0.22 -112.3 -0.39 -224.61 -0.66 -336.91 -0.02 -11.56 -0.59 -23.12 -0.97 -37.27 4.72 9.66 8.51 17.3 12.2 24.99 5.99 12.5 8.9 25.64 8.99 39.57ZM445.12 2200c0.05 25.58 -0.02 51.17 -0.11 76.75 0 0.93 -0.5 1.86 -1.06 3.79h-29.92v-95.91c8.98 -3.18 24.88 1.91 29.65 9.75 0.97 1.59 1.44 3.73 1.44 5.62Zm-17.95 -812.38c0.26 18.19 -6.83 28.69 -22.11 33.67 -16.46 5.36 -34.88 0.34 -43.74 -12.98 -3.16 -4.75 -4.9 -10.9 -5.7 -16.63 -1.06 -7.53 -0.69 -15.28 -0.69 -22.94 -0.03 -69.57 0 -139.15 0.02 -208.73 0 -4.33 0.35 -8.67 0.15 -12.98 -1.18 -25.17 29.31 -39.35 48.86 -30.45 14.47 6.59 22.24 16.91 22.11 33.37 -0.31 39.94 -0.1 79.89 -0.1 119.84 -0.28 0 -0.55 0 -0.83 0.01 0.69 39.27 1.47 78.54 2.03 117.82Z"/><path d="M384.07 2054.06c10.73 14.35 15.46 29.34 13.97 47.26 -1.26 15.23 -0.35 30.64 -0.38 45.97 -0.02 11.27 0 22.53 0 34.03 -0.96 -0.55 -2.51 -1.13 -3.7 -2.14 -29.3 -24.9 -56.63 -51.6 -77.6 -84.21 -26.71 -41.56 -43.98 -86.68 -49.76 -135.73 -2.37 -20.12 -2.52 -40.58 -2.53 -60.89 -0.06 -121.32 -0.09 -242.64 0.65 -363.95 0.14 -21.68 -2.86 -42.13 -9.86 -62.56 -12.08 -35.23 -17.46 -71.66 -17.43 -108.99 0.15 -165.65 0.04 -331.3 0.03 -496.95v-28.28H0.25c1.26 -1.94 1.75 -3.12 2.59 -3.93 21.77 -21.11 43.61 -42.14 65.36 -63.27 5.54 -5.39 11.74 -7.74 19.69 -7.74 46.33 0.02 92.66 -0.43 138.99 -0.71 4.59 -0.03 9.18 0 13.78 0 6.74 -31.35 13.24 -61.53 19.92 -92.58H30.89c1.86 -2.81 2.6 -4.5 3.82 -5.69 22.63 -22.13 45.31 -44.21 67.99 -66.3 0.23 -0.23 0.56 -0.4 0.73 -0.68 6.84 -11.41 17.6 -11.77 29.42 -11.72 74.99 0.3 149.98 0.11 224.98 0.08h11.73c-0.95 2.65 -1.36 4.16 -2.01 5.56 -26 56.02 -42.37 114.89 -50.18 176 -3.29 25.71 -4.92 51.78 -5.24 77.71 -0.95 75.98 -0.91 151.97 2.75 227.92 0.5 10.31 0.45 20.65 0.48 30.98 0 2.25 0.12 5.35 -1.19 6.6 -5.42 5.11 -4.56 11.55 -4.57 17.78 -0.15 84.32 0.25 168.65 -0.58 252.96 -0.28 28.4 7.28 53.31 25.24 74.87 7.25 8.7 9.45 17.49 9.39 28.85 -0.75 143.65 -0.93 287.3 -1.04 430.94 -0.02 18.28 -0.43 36.6 3.62 54.73 6.84 30.69 19.09 58.97 37.84 84.08Z"/></g></svg>